<?xml version="1.0" encoding="iso-8859-1"?>
<!-- Generator: Adobe Illustrator 19.0.0, SVG Export Plug-In . SVG Version: 6.00 Build 0)  -->
<svg version="1.1" id="Layer_1" xmlns="http://www.w3.org/2000/svg" xmlns:xlink="http://www.w3.org/1999/xlink" x="0px" y="0px"
	 viewBox="0 0 512 512" style="enable-background:new 0 0 512 512;" xml:space="preserve">
<path style="fill:#8AE9FF;" d="M472.573,261.762c-13.664,13.664-35.818,13.664-49.482,0L290.99,129.66v337.151
	c0,19.324-15.665,34.989-34.989,34.989s-34.989-15.665-34.989-34.989V129.66L88.91,261.762c-13.664,13.664-35.818,13.664-49.482,0
	c-13.664-13.664-13.664-35.819,0-49.482L231.259,20.447c6.832-6.832,15.786-10.248,24.741-10.248s17.909,3.416,24.741,10.248
	l191.832,191.832C486.238,225.943,486.238,248.098,472.573,261.762z"/>
<g>
	<path style="fill:#248A9C;" d="M256.001,512c-24.918,0-45.189-20.271-45.189-45.189V154.283L96.122,268.974
		c-17.618,17.618-46.286,17.619-63.907,0c-8.535-8.536-13.236-19.883-13.236-31.954c0-12.07,4.7-23.418,13.236-31.953
		L224.047,13.236C232.583,4.7,243.931,0,256.001,0s23.417,4.7,31.953,13.236l191.832,191.832
		c8.535,8.535,13.235,19.883,13.235,31.953c0,12.071-4.7,23.418-13.235,31.954c-17.62,17.618-46.288,17.618-63.907,0
		L301.189,154.283v312.528C301.189,491.729,280.918,512,256.001,512z M221.013,119.46c1.315,0,2.639,0.254,3.901,0.777
		c3.811,1.579,6.296,5.297,6.296,9.423v337.151c0,13.669,11.121,24.79,24.79,24.79c13.669,0,24.79-11.121,24.79-24.79V129.66
		c0-4.125,2.486-7.844,6.296-9.423c3.81-1.578,8.198-0.706,11.115,2.211L430.303,254.55c9.665,9.667,25.392,9.667,35.059,0
		c4.682-4.682,7.261-10.907,7.261-17.529c0-6.621-2.578-12.847-7.261-17.529L273.53,27.659c-4.682-4.682-10.908-7.261-17.529-7.261
		c-6.621,0-12.847,2.578-17.529,7.261L46.639,219.491c-4.682,4.682-7.261,10.908-7.261,17.529c0,6.622,2.578,12.847,7.261,17.529
		c9.666,9.667,25.393,9.667,35.059,0l132.101-132.101C215.75,120.497,218.359,119.46,221.013,119.46z"/>
	<path style="fill:#248A9C;" d="M364.622,155.028c-2.61,0-5.221-0.995-7.212-2.987l-3.06-3.06c-3.983-3.983-3.983-10.441,0-14.425
		c3.983-3.983,10.441-3.983,14.425,0l3.06,3.06c3.983,3.983,3.983,10.441,0,14.425C369.843,154.032,367.232,155.028,364.622,155.028
		z"/>
	<path style="fill:#248A9C;" d="M338.614,129.02c-2.61,0-5.221-0.995-7.212-2.987l-80.574-80.574
		c-3.983-3.983-3.983-10.441,0-14.425s10.441-3.983,14.425,0l80.574,80.574c3.983,3.983,3.983,10.441,0,14.425
		C343.835,128.024,341.224,129.02,338.614,129.02z"/>
</g>
<g>
</g>
<g>
</g>
<g>
</g>
<g>
</g>
<g>
</g>
<g>
</g>
<g>
</g>
<g>
</g>
<g>
</g>
<g>
</g>
<g>
</g>
<g>
</g>
<g>
</g>
<g>
</g>
<g>
</g>
</svg>
